<?xml version="1.0" encoding="UTF-8"?>
<svg id="_Слой_1" data-name="Слой 1" xmlns="http://www.w3.org/2000/svg" xmlns:xlink="http://www.w3.org/1999/xlink" viewBox="0 0 178 210">
  <defs>
    <style>
      .cls-1 {
        fill: #fff;
      }

      .cls-2 {
        filter: url(#outer-glow-1);
      }

      .cls-2, .cls-3, .cls-4 {
        fill: #734aff;
      }

      .cls-5 {
        fill: #e6e6e6;
      }

      .cls-6 {
        fill: #ffb56a;
      }

      .cls-3 {
        filter: url(#outer-glow-2);
      }

      .cls-4 {
        filter: url(#outer-glow-3);
      }
    </style>
    <filter id="outer-glow-1" filterUnits="userSpaceOnUse">
      <feOffset dx="0" dy="0"/>
      <feGaussianBlur result="blur" stdDeviation="10"/>
      <feFlood flood-color="#7e64ff" flood-opacity=".7"/>
      <feComposite in2="blur" operator="in"/>
      <feComposite in="SourceGraphic"/>
    </filter>
    <filter id="outer-glow-2" filterUnits="userSpaceOnUse">
      <feOffset dx="0" dy="0"/>
      <feGaussianBlur result="blur-2" stdDeviation="10"/>
      <feFlood flood-color="#7e64ff" flood-opacity=".7"/>
      <feComposite in2="blur-2" operator="in"/>
      <feComposite in="SourceGraphic"/>
    </filter>
    <filter id="outer-glow-3" filterUnits="userSpaceOnUse">
      <feOffset dx="0" dy="0"/>
      <feGaussianBlur result="blur-3" stdDeviation="10"/>
      <feFlood flood-color="#7e64ff" flood-opacity=".7"/>
      <feComposite in2="blur-3" operator="in"/>
      <feComposite in="SourceGraphic"/>
    </filter>
  </defs>
  <path class="cls-2" d="M146.54,108.11c-8.22,37.78-34.57,64.12-58.85,58.83-24.28-5.28-37.31-40.19-29.09-77.97,8.22-37.78,58.85-58.83,58.85-58.83,0,0,37.31,40.19,29.09,77.97Z"/>
  <circle class="cls-1" cx="106.23" cy="79.36" r="16.5"/>
  <polygon class="cls-3" points="127.47 125.23 88.18 167.04 145.83 179.58 127.47 125.23"/>
  <polygon class="cls-4" points="69.33 112.58 30.04 154.39 87.69 166.93 69.33 112.58"/>
  <ellipse class="cls-6" cx="84.46" cy="184.13" rx="11.49" ry="6.5" transform="translate(-113.42 227.52) rotate(-77.73)"/>
  <ellipse class="cls-6" cx="57.1" cy="177.56" rx="11.81" ry="5.89" transform="translate(-126.58 145.15) rotate(-62.17)"/>
  <ellipse class="cls-6" cx="112.03" cy="189.11" rx="5.96" ry="11.77" transform="translate(-8.29 5.16) rotate(-2.55)"/>
  <path class="cls-5" d="M112.77,90.44c-3-.7-2.2-22.7,.68-23.08,1.82-.24,6.1,7.94,3.91,15.8-.88,3.16-3.17,7.6-4.59,7.27Z"/>
</svg>