<?xml version="1.0" encoding="UTF-8"?>
<svg id="_Слой_1" data-name="Слой 1" xmlns="http://www.w3.org/2000/svg" xmlns:xlink="http://www.w3.org/1999/xlink" viewBox="0 0 748.84 210">
  <defs>
    <style>
      .cls-1 {
        fill: #fff;
      }

      .cls-2 {
        filter: url(#outer-glow-1);
      }

      .cls-2, .cls-3, .cls-4, .cls-5 {
        fill: #734aff;
      }

      .cls-6 {
        fill: #e6e6e6;
      }

      .cls-7 {
        fill: #ffb56a;
      }

      .cls-4 {
        filter: url(#outer-glow-2);
      }

      .cls-5 {
        filter: url(#outer-glow-3);
      }
    </style>
    <filter id="outer-glow-1" filterUnits="userSpaceOnUse">
      <feOffset dx="0" dy="0"/>
      <feGaussianBlur result="blur" stdDeviation="10"/>
      <feFlood flood-color="#7e64ff" flood-opacity=".7"/>
      <feComposite in2="blur" operator="in"/>
      <feComposite in="SourceGraphic"/>
    </filter>
    <filter id="outer-glow-2" filterUnits="userSpaceOnUse">
      <feOffset dx="0" dy="0"/>
      <feGaussianBlur result="blur-2" stdDeviation="10"/>
      <feFlood flood-color="#7e64ff" flood-opacity=".7"/>
      <feComposite in2="blur-2" operator="in"/>
      <feComposite in="SourceGraphic"/>
    </filter>
    <filter id="outer-glow-3" filterUnits="userSpaceOnUse">
      <feOffset dx="0" dy="0"/>
      <feGaussianBlur result="blur-3" stdDeviation="10"/>
      <feFlood flood-color="#7e64ff" flood-opacity=".7"/>
      <feComposite in2="blur-3" operator="in"/>
      <feComposite in="SourceGraphic"/>
    </filter>
  </defs>
  <g>
    <path class="cls-3" d="M211.06,157.56V77.78h15.26v66.89h33.69v12.88h-48.95Z"/>
    <path class="cls-3" d="M296.26,107.14h-17.52v-11.6h32.78v50.42h17.88v11.6h-52.8v-11.6h19.65v-38.82Zm16.48-28.56c0,1.34-.24,2.6-.73,3.78-.49,1.18-1.17,2.21-2.04,3.08-.88,.88-1.9,1.57-3.08,2.08-1.18,.51-2.46,.76-3.84,.76s-2.68-.25-3.88-.76c-1.2-.51-2.24-1.2-3.11-2.08-.88-.87-1.56-1.9-2.04-3.08-.49-1.18-.73-2.44-.73-3.78s.24-2.6,.73-3.78c.49-1.18,1.17-2.22,2.04-3.11,.87-.89,1.91-1.6,3.11-2.11,1.2-.51,2.49-.76,3.88-.76s2.67,.25,3.84,.76c1.18,.51,2.21,1.21,3.08,2.11,.87,.9,1.56,1.93,2.04,3.11,.49,1.18,.73,2.44,.73,3.78Z"/>
    <path class="cls-3" d="M381.96,157.56v-40.41c0-6.79-2.52-10.19-7.57-10.19-2.52,0-4.93,1.02-7.23,3.05-2.3,2.04-4.73,4.8-7.29,8.3v39.25h-14.89v-62.01h12.88l.37,9.16c1.26-1.59,2.57-3.03,3.94-4.33,1.36-1.3,2.84-2.41,4.42-3.33,1.59-.92,3.3-1.62,5.13-2.11,1.83-.49,3.89-.73,6.17-.73,3.17,0,5.94,.52,8.3,1.56,2.36,1.04,4.33,2.5,5.92,4.39,1.59,1.89,2.78,4.17,3.57,6.84,.79,2.67,1.19,5.65,1.19,8.94v41.63h-14.89Z"/>
    <path class="cls-3" d="M452.09,157.56l-22.89-31.01v31.01h-14.89V71.31h14.89v50.48l21.67-26.25h18.62l-25.15,28.26,27.22,33.75h-19.47Z"/>
    <path class="cls-3" d="M533.57,139.31c0,3.54-.78,6.56-2.35,9.06-1.57,2.5-3.64,4.54-6.23,6.1s-5.51,2.71-8.79,3.42c-3.28,.71-6.62,1.07-10.04,1.07-4.56,0-8.67-.21-12.33-.64-3.66-.43-7.12-1.05-10.38-1.86v-13.43c3.82,1.59,7.64,2.74,11.44,3.45,3.8,.71,7.39,1.07,10.77,1.07,3.91,0,6.83-.62,8.76-1.86,1.93-1.24,2.9-2.86,2.9-4.85,0-.94-.2-1.79-.61-2.56-.41-.77-1.17-1.52-2.29-2.23-1.12-.71-2.7-1.44-4.73-2.2-2.04-.75-4.7-1.6-8-2.53-3.05-.85-5.73-1.82-8.03-2.9-2.3-1.08-4.2-2.35-5.71-3.81-1.51-1.46-2.63-3.16-3.39-5.1-.75-1.93-1.13-4.2-1.13-6.81s.57-4.9,1.71-7.14c1.14-2.24,2.84-4.2,5.1-5.89,2.26-1.69,5.08-3.02,8.45-4,3.38-.98,7.32-1.46,11.84-1.46,3.91,0,7.36,.2,10.38,.61,3.01,.41,5.68,.85,8,1.34v12.15c-3.54-1.14-6.87-1.94-9.98-2.41-3.11-.47-6.2-.7-9.25-.7s-5.5,.55-7.35,1.65c-1.85,1.1-2.78,2.62-2.78,4.58,0,.94,.18,1.77,.55,2.5,.37,.73,1.09,1.44,2.17,2.14,1.08,.69,2.58,1.41,4.52,2.17s4.49,1.58,7.66,2.47c3.58,1.02,6.59,2.11,9.03,3.27,2.44,1.16,4.4,2.47,5.89,3.94s2.55,3.13,3.2,5c.65,1.87,.98,4.01,.98,6.41Z"/>
    <path class="cls-3" d="M588.13,157.56v-40.41c0-6.79-2.52-10.19-7.57-10.19-2.52,0-4.93,1.02-7.23,3.05-2.3,2.04-4.73,4.8-7.29,8.3v39.25h-14.89V71.31h14.89v21.24l-.73,11.23c1.26-1.5,2.54-2.86,3.84-4.06,1.3-1.2,2.71-2.21,4.21-3.02,1.5-.81,3.13-1.43,4.88-1.86,1.75-.43,3.68-.64,5.8-.64,3.17,0,5.94,.52,8.3,1.56,2.36,1.04,4.33,2.5,5.92,4.39,1.59,1.89,2.78,4.17,3.57,6.84,.79,2.67,1.19,5.65,1.19,8.94v41.63h-14.89Z"/>
    <path class="cls-3" d="M639.89,107.14h-17.52v-11.6h32.78v50.42h17.88v11.6h-52.8v-11.6h19.65v-38.82Zm16.48-28.56c0,1.34-.24,2.6-.73,3.78-.49,1.18-1.17,2.21-2.04,3.08-.88,.88-1.9,1.57-3.08,2.08-1.18,.51-2.46,.76-3.84,.76s-2.68-.25-3.88-.76c-1.2-.51-2.24-1.2-3.11-2.08-.88-.87-1.56-1.9-2.04-3.08-.49-1.18-.73-2.44-.73-3.78s.24-2.6,.73-3.78c.49-1.18,1.17-2.22,2.04-3.11,.87-.89,1.91-1.6,3.11-2.11,1.2-.51,2.49-.76,3.88-.76s2.67,.25,3.84,.76c1.18,.51,2.21,1.21,3.08,2.11,.87,.9,1.56,1.93,2.04,3.11,.49,1.18,.73,2.44,.73,3.78Z"/>
    <path class="cls-3" d="M744.38,125.45c0,5.7-.8,10.62-2.41,14.77-1.61,4.15-3.85,7.6-6.71,10.35-2.87,2.75-6.26,4.78-10.16,6.1-3.91,1.32-8.16,1.98-12.76,1.98-1.55,0-3.09-.1-4.64-.31-1.55-.2-2.95-.47-4.21-.79v24.23h-14.89V95.54h12.88l.37,9.16c1.26-1.59,2.57-3.03,3.94-4.33,1.36-1.3,2.84-2.41,4.42-3.33,1.59-.92,3.3-1.62,5.13-2.11,1.83-.49,3.89-.73,6.17-.73,3.66,0,6.92,.73,9.77,2.2,2.85,1.46,5.24,3.55,7.17,6.26,1.93,2.71,3.41,5.98,4.42,9.83,1.02,3.84,1.53,8.17,1.53,12.97Zm-15.62,.61c0-3.42-.24-6.33-.73-8.73-.49-2.4-1.19-4.37-2.11-5.92-.92-1.55-2.04-2.68-3.36-3.39-1.32-.71-2.84-1.07-4.55-1.07-2.52,0-4.93,1.02-7.23,3.05-2.3,2.04-4.73,4.8-7.29,8.3v27.1c1.18,.45,2.63,.81,4.36,1.1,1.73,.29,3.49,.43,5.28,.43,2.36,0,4.51-.49,6.44-1.46s3.58-2.36,4.94-4.15c1.36-1.79,2.41-3.98,3.14-6.56,.73-2.58,1.1-5.48,1.1-8.7Z"/>
  </g>
  <path class="cls-2" d="M146.54,108.11c-8.22,37.78-34.57,64.12-58.85,58.83-24.28-5.28-37.31-40.19-29.09-77.97,8.22-37.78,58.85-58.83,58.85-58.83,0,0,37.31,40.19,29.09,77.97Z"/>
  <circle class="cls-1" cx="106.23" cy="79.36" r="16.5"/>
  <polygon class="cls-4" points="127.47 125.23 88.18 167.04 145.83 179.58 127.47 125.23"/>
  <polygon class="cls-5" points="69.33 112.58 30.04 154.39 87.69 166.93 69.33 112.58"/>
  <ellipse class="cls-7" cx="84.46" cy="184.13" rx="11.49" ry="6.5" transform="translate(-113.42 227.52) rotate(-77.73)"/>
  <ellipse class="cls-7" cx="57.1" cy="177.56" rx="11.81" ry="5.89" transform="translate(-126.58 145.15) rotate(-62.17)"/>
  <ellipse class="cls-7" cx="112.03" cy="189.11" rx="5.96" ry="11.77" transform="translate(-8.29 5.16) rotate(-2.55)"/>
  <path class="cls-6" d="M112.77,90.44c-3-.7-2.2-22.7,.68-23.08,1.82-.24,6.1,7.94,3.91,15.8-.88,3.16-3.17,7.6-4.59,7.27Z"/>
</svg>